<svg width="100" height="100" viewBox="0 0 100 100" fill="none" xmlns="http://www.w3.org/2000/svg">
<g clip-path="url(#clip0_1_9)">
<rect width="100" height="100" fill="white"/>
<circle cx="50" cy="50" r="45" fill="#FF8956"/>
<path d="M18.5455 111V96.8182L51.6818 66.1364C54.5 63.4091 56.8636 60.9545 58.7727 58.7727C60.7121 56.5909 62.1818 54.4545 63.1818 52.3636C64.1818 50.2424 64.6818 47.9545 64.6818 45.5C64.6818 42.7727 64.0606 40.4242 62.8182 38.4545C61.5758 36.4545 59.8788 34.9242 57.7273 33.8636C55.5758 32.7727 53.1364 32.2273 50.4091 32.2273C47.5606 32.2273 45.0758 32.803 42.9545 33.9545C40.8333 35.1061 39.197 36.7576 38.0455 38.9091C36.8939 41.0606 36.3182 43.6212 36.3182 46.5909H17.6364C17.6364 40.5 19.0152 35.2121 21.7727 30.7273C24.5303 26.2424 28.3939 22.7727 33.3636 20.3182C38.3333 17.8636 44.0606 16.6364 50.5455 16.6364C57.2121 16.6364 63.0152 17.8182 67.9545 20.1818C72.9242 22.5151 76.7879 25.7576 79.5455 29.9091C82.303 34.0606 83.6818 38.8182 83.6818 44.1818C83.6818 47.697 82.9849 51.1667 81.5909 54.5909C80.2273 58.0152 77.7879 61.8182 74.2727 66C70.7576 70.1515 65.803 75.1364 59.4091 80.9545L45.8182 94.2727V94.9091H84.9091V111H18.5455Z" fill="white"/>
</g>
<defs>
<clipPath id="clip0_1_9">
<rect width="100" height="100" fill="white"/>
</clipPath>
</defs>
</svg>
