<svg width="100" height="100" viewBox="0 0 100 100" fill="none" xmlns="http://www.w3.org/2000/svg">
<g clip-path="url(#clip0_1_14)">
<rect width="100" height="100" fill="white"/>
<circle cx="50" cy="50" r="45" fill="#57CD48"/>
<path d="M49.9545 112.273C43.1667 112.273 37.1212 111.106 31.8182 108.773C26.5455 106.409 22.3788 103.167 19.3182 99.0455C16.2879 94.8939 14.7273 90.1061 14.6364 84.6818H34.4545C34.5758 86.9545 35.3182 88.9545 36.6818 90.6818C38.0758 92.3788 39.9242 93.697 42.2273 94.6364C44.5303 95.5758 47.1212 96.0455 50 96.0455C53 96.0455 55.6515 95.5152 57.9545 94.4545C60.2576 93.3939 62.0606 91.9242 63.3636 90.0455C64.6667 88.1667 65.3182 86 65.3182 83.5455C65.3182 81.0606 64.6212 78.8636 63.2273 76.9545C61.8636 75.0151 59.8939 73.5 57.3182 72.4091C54.7727 71.3182 51.7424 70.7727 48.2273 70.7727H39.5455V56.3182H48.2273C51.197 56.3182 53.8182 55.803 56.0909 54.7727C58.3939 53.7424 60.1818 52.3182 61.4545 50.5C62.7273 48.6515 63.3636 46.5 63.3636 44.0455C63.3636 41.7121 62.803 39.6667 61.6818 37.9091C60.5909 36.1212 59.0455 34.7273 57.0455 33.7273C55.0758 32.7273 52.7727 32.2273 50.1364 32.2273C47.4697 32.2273 45.0303 32.7121 42.8182 33.6818C40.6061 34.6212 38.8333 35.9697 37.5 37.7273C36.1667 39.4848 35.4545 41.5455 35.3636 43.9091H16.5C16.5909 38.5455 18.1212 33.8182 21.0909 29.7273C24.0606 25.6364 28.0606 22.4394 33.0909 20.1364C38.1515 17.803 43.8636 16.6364 50.2273 16.6364C56.6515 16.6364 62.2727 17.803 67.0909 20.1364C71.9091 22.4697 75.6515 25.6212 78.3182 29.5909C81.0152 33.5303 82.3485 37.9545 82.3182 42.8636C82.3485 48.0758 80.7273 52.4242 77.4545 55.9091C74.2121 59.3939 69.9849 61.6061 64.7727 62.5455V63.2727C71.6212 64.1515 76.8333 66.5303 80.4091 70.4091C84.0152 74.2576 85.803 79.0758 85.7727 84.8636C85.803 90.1667 84.2727 94.8788 81.1818 99C78.1212 103.121 73.8939 106.364 68.5 108.727C63.1061 111.091 56.9242 112.273 49.9545 112.273Z" fill="white"/>
</g>
<defs>
<clipPath id="clip0_1_14">
<rect width="100" height="100" fill="white"/>
</clipPath>
</defs>
</svg>
